<svg width="57" height="52" viewBox="0 0 57 52" fill="none" xmlns="http://www.w3.org/2000/svg">
<path d="M43.2695 33.6552C40.5429 32.1408 38.5246 29.6111 37.6536 26.6163L37.6533 26.6166C37.0621 24.5827 35.8268 22.7956 34.1329 21.524C32.439 20.2524 30.3782 19.5649 28.2601 19.5649C26.1421 19.5649 24.0812 20.2524 22.3874 21.524C20.6935 22.7956 19.4581 24.5827 18.8669 26.6166L18.8667 26.6163C17.9956 29.6111 15.9773 32.1408 13.2508 33.6552C11.2867 34.7198 9.80767 36.4994 9.12018 38.6251C8.4327 40.7507 8.58952 43.0594 9.55814 45.0725C10.5268 47.0856 12.2329 48.6489 14.3229 49.4381C16.4128 50.2274 18.7264 50.1821 20.7839 49.3118C25.5745 47.3474 30.9457 47.3474 35.7363 49.3118C37.794 50.1831 40.1081 50.229 42.1987 49.4399C44.2893 48.6509 45.996 47.0874 46.9649 45.0738C47.9337 43.0602 48.0903 40.751 47.4023 38.625C46.7143 36.499 45.2344 34.7194 43.2695 33.6552Z" stroke="#2F9958" stroke-width="3.26079" stroke-linecap="round" stroke-linejoin="round"/>
<path d="M49.9987 26.0861C53.6005 26.0861 56.5203 23.1663 56.5203 19.5645C56.5203 15.9628 53.6005 13.043 49.9987 13.043C46.397 13.043 43.4772 15.9628 43.4772 19.5645C43.4772 23.1663 46.397 26.0861 49.9987 26.0861Z" fill="#2F9958"/>
<path d="M6.52158 26.0861C10.1233 26.0861 13.0432 23.1663 13.0432 19.5645C13.0432 15.9628 10.1233 13.043 6.52158 13.043C2.91981 13.043 0 15.9628 0 19.5645C0 23.1663 2.91981 26.0861 6.52158 26.0861Z" fill="#2F9958"/>
<path d="M19.5647 13.0432C23.1664 13.0432 26.0862 10.1233 26.0862 6.52158C26.0862 2.91981 23.1664 0 19.5647 0C15.9629 0 13.0431 2.91981 13.0431 6.52158C13.0431 10.1233 15.9629 13.0432 19.5647 13.0432Z" fill="#2F9958"/>
<path d="M36.9557 13.0432C40.5574 13.0432 43.4772 10.1233 43.4772 6.52158C43.4772 2.91981 40.5574 0 36.9557 0C33.3539 0 30.4341 2.91981 30.4341 6.52158C30.4341 10.1233 33.3539 13.0432 36.9557 13.0432Z" fill="#2F9958"/>
</svg>
