<svg width="57" height="52" viewBox="0 0 57 52" fill="none" xmlns="http://www.w3.org/2000/svg">
<path d="M43.2695 33.6552C40.5429 32.1408 38.5246 29.6111 37.6536 26.6163L37.6533 26.6166C37.0621 24.5827 35.8268 22.7956 34.1329 21.524C32.439 20.2524 30.3782 19.5649 28.2601 19.5649C26.1421 19.5649 24.0812 20.2524 22.3874 21.524C20.6935 22.7956 19.4581 24.5827 18.8669 26.6166L18.8667 26.6163C17.9956 29.6111 15.9773 32.1408 13.2508 33.6552C11.2867 34.7198 9.80767 36.4994 9.12018 38.6251C8.4327 40.7507 8.58952 43.0594 9.55814 45.0725C10.5268 47.0856 12.2329 48.6489 14.3229 49.4381C16.4128 50.2274 18.7264 50.1821 20.7839 49.3118C25.5745 47.3474 30.9457 47.3474 35.7363 49.3118C37.794 50.1831 40.1081 50.229 42.1987 49.4399C44.2893 48.6509 45.996 47.0874 46.9649 45.0738C47.9337 43.0602 48.0903 40.751 47.4023 38.625C46.7143 36.499 45.2344 34.7194 43.2695 33.6552Z" stroke="#2F9958" stroke-width="3.26079" stroke-linecap="round" stroke-linejoin="round"/>
<path d="M49.9987 26.0861C53.6005 26.0861 56.5203 23.1663 56.5203 19.5645C56.5203 15.9628 53.6005 13.043 49.9987 13.043C46.397 13.043 43.4772 15.9628 43.4772 19.5645C43.4772 23.1663 46.397 26.0861 49.9987 26.0861Z" fill="#2F9958"/>
<path d="M6.52158 26.0861C10.1233 26.0861 13.0432 23.1663 13.0432 19.5645C13.0432 15.9628 10.1233 13.043 6.52158 13.043C2.91981 13.043 0 15.9628 0 19.5645C0 23.1663 2.91981 26.0861 6.52158 26.0861Z" fill="#2F9958"/>
<path d="M19.5647 13.0432C23.1664 13.0432 26.0862 10.1233 26.0862 6.52158C26.0862 2.91981 23.1664 0 19.5647 0C15.9629 0 13.0431 2.91981 13.0431 6.52158C13.0431 10.1233 15.9629 13.0432 19.5647 13.0432Z" fill="#2F9958"/>
<path d="M36.9557 13.0432C40.5574 13.0432 43.4772 10.1233 43.4772 6.52158C43.4772 2.91981 40.5574 0 36.9557 0C33.3539 0 30.4341 2.91981 30.4341 6.52158C30.4341 10.1233 33.3539 13.0432 36.9557 13.0432Z" fill="#2F9958"/>
<path d="M28.123 28.5146C28.4072 28.5429 28.6742 28.6684 28.8779 28.8721C29.1108 29.105 29.2422 29.4207 29.2422 29.75V33.7578H33.25C33.5793 33.7578 33.895 33.8892 34.1279 34.1221C34.3608 34.355 34.4922 34.6707 34.4922 35C34.4922 35.3293 34.3608 35.645 34.1279 35.8779C33.895 36.1108 33.5793 36.2422 33.25 36.2422H29.2422V40.25C29.2422 40.5793 29.1108 40.895 28.8779 41.1279C28.645 41.3608 28.3293 41.4922 28 41.4922C27.6707 41.4922 27.355 41.3608 27.1221 41.1279C26.8892 40.895 26.7578 40.5793 26.7578 40.25V36.2422H22.75C22.4207 36.2422 22.105 36.1108 21.8721 35.8779C21.6392 35.645 21.5078 35.3293 21.5078 35L21.5146 34.877C21.5429 34.5928 21.6684 34.3258 21.8721 34.1221C22.105 33.8892 22.4207 33.7578 22.75 33.7578H26.7578V29.75C26.7578 29.4207 26.8892 29.105 27.1221 28.8721C27.355 28.6392 27.6707 28.5078 28 28.5078L28.123 28.5146Z" fill="#2F9958" stroke="#2F9958" stroke-width="0.983607"/>
</svg>
