<svg width="334" height="279" viewBox="0 0 334 279" fill="none" xmlns="http://www.w3.org/2000/svg">
<path d="M27.2131 141.175C32.8033 211.495 70.5371 235.912 88.7053 239.33C92.4321 254.468 94.2955 286.503 71.9347 293.535C49.5739 300.567 37.4618 277.385 34.2008 264.915C23.4863 260.863 4.29323 247.313 13.2376 225.534C6.97555 218.351 1.37044 206.026 2.05717 186.59C3.17521 154.946 19.2936 143.128 27.2131 141.175Z" fill="#FFC341"/>
<path d="M24.418 233.47C21.3628 232.528 17.1706 230.045 13.2376 225.534M41.1886 265.7C38.6669 265.602 36.3422 265.333 34.2008 264.915M34.2008 264.915C37.4618 277.385 49.5739 300.567 71.9347 293.535C94.2955 286.503 92.4321 254.468 88.7053 239.33C70.5371 235.912 32.8033 211.495 27.2131 141.175C19.2936 143.128 3.17521 154.946 2.05717 186.59C1.37044 206.026 6.97555 218.351 13.2376 225.534M34.2008 264.915C23.4863 260.863 4.29323 247.313 13.2376 225.534" stroke="#FFC341" stroke-width="4" stroke-linecap="round" stroke-linejoin="round"/>
<path d="M74.7296 295C69.1394 245.776 101.283 202.216 118.054 186.59C168.366 177.311 271.784 165.494 282.965 192.45C296.94 226.145 298.338 286.21 298.338 292.07L74.7296 295Z" fill="#FFC341" stroke="#FFC341" stroke-width="4" stroke-linecap="round" stroke-linejoin="round"/>
<path d="M284 192.051L275.31 174.465L130.483 173L116 186.189C155.103 219.895 169.586 219.895 201.448 222.826C226.938 225.17 267.103 203.286 284 192.051Z" fill="#FF4141" stroke="#FF4141" stroke-width="4" stroke-linecap="round" stroke-linejoin="round"/>
<path d="M151.5 200.812C149.9 199.146 132.5 183.451 124 175.812L132.5 168L275 170.083L279 177.5C265.833 187.743 233.9 204.562 231.5 207.062C228.5 210.187 216.5 218 214 218C211.5 218 209 216.437 205.5 214.354C202 212.271 203 213.833 198.5 214.354C194 214.875 187.5 212.271 184.5 211.75C181.5 211.229 177 210.187 172.5 208.625C168 207.062 164.5 206.542 160.5 204.979C156.5 203.417 153.5 202.896 151.5 200.812Z" fill="#E41B1B"/>
<path d="M329.531 68.0143C325.059 76.2183 319.282 89.9893 316.953 95.8493C308.835 98.3312 300.769 95.7807 293.195 90.3395C289.002 98.0146 312.76 126.614 311.363 136.869C310.245 145.073 304.352 140.288 301.546 136.869C301.277 140.275 299.425 146.24 295.99 158.844C291.518 175.252 285.017 169.588 282.326 164.704C281.867 165.691 281.292 166.648 280.617 167.571C277.519 171.806 272.315 175.34 266.641 177.889C256.858 182.284 223.317 204.259 219.124 208.654C214.932 213.049 209.342 207.189 203.751 204.259C198.161 201.329 193.969 210.119 189.776 205.724C187.758 203.609 175.297 200.858 164 196C156.522 192.784 154.837 190 147.849 183.5C145.986 183.5 140.862 191 135.271 177.889C134.535 176.163 133.797 174.91 133.325 173.494C127.303 170.564 119.729 162.79 118.501 152.984C117 141 111.513 167.571 106.5 142.5C105.321 131.507 108.46 111.836 111.513 107.024C101.773 108.776 92.8198 107.658 90.5498 101.709C84.9596 87.0593 58.4061 72.4093 62.5988 51.8993C66.7914 31.3893 110.115 32.8543 118.501 18.2043C126.886 3.5543 135.271 9.4143 143.657 5.0193C150.365 1.5033 156.639 15.6857 158.938 23.2164C175.132 14.8827 208.065 6.13893 241.038 22.287C243.275 4.45717 259.97 1.39277 268.039 2.0893C282.291 2.0893 301.58 18.2043 302.977 25.5293C304.095 31.3893 321.146 36.761 329.531 38.7143C331.394 45.0626 334.003 59.8103 329.531 68.0143Z" fill="#FFC341"/>
<path d="M316.953 95.8493L317.538 97.7619L318.457 97.481L318.811 96.5881L316.953 95.8493ZM329.531 38.7143L331.45 38.151C331.247 37.4591 330.687 36.9301 329.985 36.7665L329.531 38.7143ZM268.039 2.0893L267.867 4.08189L267.952 4.0893H268.039V2.0893ZM153.78 23.8313C152.842 24.415 152.555 25.6484 153.139 26.5861C153.723 27.5239 154.956 27.8109 155.894 27.2273L154.837 25.5293L153.78 23.8313ZM158.938 23.2164L159.853 24.9947V24.9947L158.938 23.2164ZM143.657 5.0193L142.728 3.24787V3.24787L143.657 5.0193ZM118.501 18.2043L116.765 17.2108V17.2108L118.501 18.2043ZM62.5988 51.8993L60.6393 51.4987L62.5988 51.8993ZM90.5498 101.709L92.4184 100.996H92.4183L90.5498 101.709ZM140.862 87.0593L142.853 86.8694V86.8694L140.862 87.0593ZM149.799 36.2307C150.045 35.1539 149.372 34.0813 148.296 33.8347C147.219 33.5882 146.146 34.2612 145.9 35.338L147.849 35.7843L149.799 36.2307ZM147.849 183.5L149.212 182.035L148.636 181.5H147.849V183.5ZM135.271 177.889L133.432 178.674H133.432L135.271 177.889ZM189.776 205.724L191.223 204.344V204.344L189.776 205.724ZM266.641 177.889L267.461 179.714V179.714L266.641 177.889ZM280.617 167.571L282.231 168.752V168.752L280.617 167.571ZM282.326 164.704L280.512 163.862V163.862L282.326 164.704ZM285.387 157.065C285.213 155.974 284.189 155.231 283.098 155.404C282.007 155.578 281.263 156.602 281.437 157.693L283.412 157.379L285.387 157.065ZM295.99 158.844L297.919 159.37V159.37L295.99 158.844ZM298.834 123.769C298.072 122.97 296.806 122.94 296.007 123.702C295.208 124.465 295.178 125.731 295.94 126.53L297.387 125.149L298.834 123.769ZM311.363 136.869L313.344 137.139V137.139L311.363 136.869ZM255.92 32.1105C255.509 31.0851 254.345 30.587 253.319 30.9978C252.294 31.4086 251.796 32.5728 252.207 33.5981L254.063 32.8543L255.92 32.1105ZM164 196L163.21 197.837V197.837L164 196ZM241.038 22.287L240.159 24.0832V24.0832L241.038 22.287ZM246.064 27.255C247.018 27.8133 248.243 27.4933 248.801 26.5402C249.359 25.5871 249.039 24.3619 248.086 23.8036L247.075 25.5293L246.064 27.255ZM131.548 161.468C130.57 161.981 130.192 163.189 130.705 164.168C131.218 165.146 132.426 165.524 133.405 165.011L132.476 163.239L131.548 161.468ZM118.501 152.984L120.485 152.736V152.736L118.501 152.984ZM106.5 142.5L104.511 142.713L104.521 142.803L104.539 142.892L106.5 142.5ZM316.953 95.8493L318.811 96.5881C321.138 90.7341 326.877 77.0608 331.287 68.9716L329.531 68.0143L327.775 67.0571C323.24 75.3758 317.426 89.2445 315.094 95.1106L316.953 95.8493ZM329.531 68.0143L331.287 68.9716C333.799 64.3629 334.235 58.1566 333.903 52.5502C333.567 46.8742 332.418 41.4504 331.45 38.151L329.531 38.7143L327.612 39.2776C328.507 42.3265 329.594 47.4507 329.91 52.7867C330.23 58.1922 329.735 63.4617 327.775 67.0571L329.531 68.0143ZM329.531 38.7143L329.985 36.7665C325.866 35.8069 319.625 34.0074 314.312 31.7465C311.649 30.6133 309.303 29.3988 307.587 28.1638C305.782 26.8642 305.069 25.8219 304.942 25.1545L302.977 25.5293L301.013 25.9041C301.445 28.1667 303.282 29.9933 305.25 31.4101C307.308 32.8915 309.958 34.2407 312.746 35.4271C318.334 37.8054 324.811 39.6684 329.077 40.6622L329.531 38.7143ZM302.977 25.5293L304.942 25.1545C304.487 22.7718 302.711 20.0524 300.437 17.4581C298.097 14.7897 294.996 11.9915 291.507 9.44661C284.606 4.41287 275.797 0.089296 268.039 0.0892962V2.0893V4.0893C274.532 4.0893 282.494 7.82323 289.15 12.6782C292.44 15.0777 295.313 17.6817 297.429 20.095C299.61 22.5825 300.769 24.6243 301.013 25.9041L302.977 25.5293ZM154.837 25.5293L155.894 27.2273C157.054 26.5051 158.378 25.7537 159.853 24.9947L158.938 23.2164L158.023 21.438C156.46 22.2421 155.041 23.0466 153.78 23.8313L154.837 25.5293ZM158.938 23.2164L160.851 22.6325C159.672 18.7698 157.459 13.1386 154.616 8.86702C153.204 6.74668 151.524 4.78688 149.59 3.61125C147.556 2.37503 145.153 1.97682 142.728 3.24787L143.657 5.0193L144.585 6.79073C145.514 6.30378 146.411 6.35987 147.512 7.0293C148.713 7.75932 150.003 9.15654 151.286 11.0836C153.831 14.9069 155.905 20.1322 157.025 23.8003L158.938 23.2164ZM143.657 5.0193L142.728 3.24787C140.924 4.19345 139.086 4.60949 137.087 4.89329C135.2 5.16113 132.832 5.33606 130.652 5.81222C128.346 6.31585 125.965 7.19209 123.586 8.98436C121.223 10.7652 118.96 13.3752 116.765 17.2108L118.501 18.2043L120.237 19.1978C122.234 15.7084 124.164 13.5572 125.993 12.1791C127.807 10.8124 129.619 10.1321 131.505 9.72012C133.518 9.28065 135.343 9.1809 137.649 8.85359C139.842 8.54223 142.197 8.04264 144.585 6.79073L143.657 5.0193ZM118.501 18.2043L116.765 17.2108C115.017 20.2641 111.283 22.7063 106.039 24.9232C100.838 27.122 94.6575 28.9065 88.3597 30.9521C82.1573 32.9668 75.8765 35.2263 70.8664 38.3439C65.8318 41.4767 61.8394 45.628 60.6393 51.4987L62.5988 51.8993L64.5582 52.2999C65.4545 47.9156 68.4498 44.5588 72.9797 41.74C77.5341 38.906 83.3945 36.7706 89.5954 34.7565C95.7008 32.7734 102.185 30.8954 107.597 28.6075C112.965 26.338 117.792 23.4695 120.237 19.1978L118.501 18.2043ZM62.5988 51.8993L60.6393 51.4987C58.3386 62.7533 64.5422 72.2082 71.3785 80.2932C73.1072 82.3377 74.909 84.3304 76.6626 86.263C78.4244 88.2046 80.1327 90.0802 81.7144 91.93C84.9019 95.6578 87.4139 99.1012 88.6812 102.422L90.5498 101.709L92.4183 100.996C90.8906 96.9925 87.987 93.1108 84.7545 89.3305C83.1262 87.4262 81.3734 85.502 79.6249 83.5751C77.8683 81.6392 76.1107 79.6947 74.4329 77.7105C67.643 69.6804 62.6662 61.5554 64.5582 52.2999L62.5988 51.8993ZM140.862 87.0593L142.853 86.8694C142.321 81.2936 143.323 71.7624 144.864 61.914C146.393 52.1402 148.41 42.2979 149.799 36.2307L147.849 35.7843L145.9 35.338C144.494 41.4791 142.458 51.4142 140.912 61.2958C139.378 71.1029 138.284 81.105 138.871 87.2492L140.862 87.0593ZM90.5498 101.709L88.6812 102.422C90.1557 106.286 93.7321 108.333 97.8096 109.21C101.896 110.088 106.854 109.894 111.867 108.992L111.513 107.024L111.159 105.056C106.432 105.906 102.043 106.028 98.6504 105.299C95.2489 104.568 93.2139 103.081 92.4184 100.996L90.5498 101.709ZM111.513 107.024L111.867 108.992C119.215 107.671 127.008 104.77 132.911 101.033C135.861 99.1658 138.425 97.035 140.215 94.7086C142.005 92.3813 143.124 89.7132 142.853 86.8694L140.862 87.0593L138.871 87.2492C139.014 88.756 138.453 90.4385 137.044 92.2698C135.635 94.1022 133.481 95.9383 130.771 97.6538C125.354 101.083 118.058 103.815 111.159 105.056L111.513 107.024ZM147.849 183.5V181.5C147.059 181.5 146.375 181.861 146.046 182.04C145.671 182.245 145.185 182.554 144.854 182.752C144.053 183.234 143.385 183.554 142.746 183.622C142.231 183.677 141.557 183.59 140.655 182.796C139.677 181.936 138.454 180.254 137.111 177.105L135.271 177.889L133.432 178.674C134.884 182.08 136.397 184.377 138.012 185.798C139.701 187.285 141.472 187.781 143.17 187.6C144.743 187.432 146.055 186.697 146.914 186.182C147.413 185.882 147.677 185.707 147.96 185.553C148.29 185.373 148.174 185.5 147.849 185.5V183.5ZM189.776 205.724L188.329 207.105C189.807 208.654 191.497 209.176 193.238 208.915C194.738 208.691 196.155 207.885 197.223 207.283C199.722 205.872 201.145 205.152 202.823 206.031L203.751 204.259L204.68 202.488C200.767 200.437 197.3 202.646 195.256 203.8C194.053 204.479 193.286 204.864 192.646 204.96C192.247 205.019 191.841 204.992 191.223 204.344L189.776 205.724ZM203.751 204.259L202.823 206.031C204.121 206.711 205.434 207.57 206.833 208.478C208.192 209.36 209.646 210.297 211.083 211C212.511 211.699 214.114 212.265 215.778 212.233C217.539 212.2 219.174 211.5 220.572 210.035L219.124 208.654L217.677 207.274C216.978 208.006 216.342 208.222 215.702 208.234C214.963 208.248 214.034 207.991 212.841 207.407C211.657 206.828 210.404 206.026 209.011 205.122C207.659 204.245 206.177 203.273 204.68 202.488L203.751 204.259ZM219.124 208.654L220.572 210.035C221.457 209.107 224.158 207.028 228.096 204.245C231.957 201.516 236.826 198.235 241.877 194.948C252.036 188.338 262.736 181.836 267.461 179.714L266.641 177.889L265.822 176.065C260.763 178.337 249.801 185.02 239.696 191.595C234.615 194.901 229.701 198.212 225.788 200.978C221.952 203.688 218.888 206.004 217.677 207.274L219.124 208.654ZM266.641 177.889L267.461 179.714C273.298 177.091 278.848 173.376 282.231 168.752L280.617 167.571L279.002 166.39C276.19 170.235 271.333 173.589 265.822 176.065L266.641 177.889ZM280.617 167.571L282.231 168.752C282.975 167.735 283.62 166.665 284.14 165.547L282.326 164.704L280.512 163.862C280.115 164.717 279.609 165.561 279.002 166.39L280.617 167.571ZM282.326 164.704L284.14 165.547C285.352 162.935 285.866 160.08 285.387 157.065L283.412 157.379L281.437 157.693C281.778 159.839 281.426 161.892 280.512 163.862L282.326 164.704ZM282.326 164.704L280.574 165.67C281.32 167.024 282.358 168.487 283.622 169.636C284.863 170.764 286.537 171.778 288.509 171.758C290.578 171.738 292.419 170.596 293.944 168.572C295.443 166.582 296.771 163.583 297.919 159.37L295.99 158.844L294.06 158.318C292.972 162.31 291.811 164.756 290.749 166.166C289.713 167.541 288.922 167.754 288.47 167.759C287.922 167.764 287.187 167.471 286.312 166.676C285.461 165.902 284.676 164.826 284.077 163.739L282.326 164.704ZM295.99 158.844L297.919 159.37C299.627 153.106 300.962 148.415 301.888 144.92C302.809 141.447 303.389 138.936 303.54 137.027L301.546 136.869L299.552 136.712C299.434 138.208 298.953 140.383 298.022 143.895C297.097 147.385 295.788 151.979 294.06 158.318L295.99 158.844ZM301.546 136.869L303.54 137.027C303.612 136.104 303.34 134.86 303.05 133.778C302.733 132.593 302.288 131.241 301.811 129.942C301.334 128.643 300.812 127.363 300.332 126.32C300.092 125.8 299.854 125.319 299.629 124.915C299.429 124.557 299.157 124.107 298.834 123.769L297.387 125.149L295.94 126.53C295.886 126.474 295.952 126.535 296.136 126.864C296.294 127.147 296.484 127.528 296.699 127.993C297.125 128.92 297.607 130.099 298.056 131.321C298.505 132.545 298.909 133.777 299.187 134.814C299.326 135.333 299.427 135.779 299.488 136.136C299.519 136.313 299.536 136.455 299.545 136.562C299.555 136.675 299.551 136.72 299.552 136.712L301.546 136.869ZM301.546 136.869L300 138.138C300.767 139.072 301.749 140.107 302.828 141.004C303.883 141.88 305.157 142.73 306.505 143.141C307.908 143.569 309.625 143.565 311.06 142.324C312.364 141.197 313.041 139.365 313.344 137.139L311.363 136.869L309.381 136.599C309.125 138.476 308.647 139.122 308.444 139.298C308.372 139.36 308.23 139.485 307.67 139.314C307.054 139.127 306.259 138.653 305.384 137.927C304.534 137.221 303.728 136.376 303.091 135.6L301.546 136.869ZM254.063 32.8543L252.207 33.5981C255.658 42.2119 261.129 53.5577 267.949 64.3474C274.75 75.1074 282.991 85.4716 292.028 91.9638L293.195 90.3395L294.361 88.7152C285.936 82.6625 278.023 72.7991 271.33 62.2102C264.656 51.651 259.292 40.5267 255.92 32.1105L254.063 32.8543ZM293.195 90.3395L292.028 91.9638C299.886 97.6093 308.602 100.494 317.538 97.7619L316.953 95.8493L316.368 93.9367C309.068 96.1687 301.651 93.9522 294.361 88.7152L293.195 90.3395ZM311.363 136.869L313.344 137.139C313.573 135.46 313.274 133.582 312.735 131.691C312.187 129.774 311.343 127.681 310.339 125.511C308.334 121.183 305.58 116.326 302.977 111.662C300.345 106.946 297.873 102.436 296.31 98.6435C295.529 96.7477 295.014 95.1235 294.804 93.806C294.587 92.4531 294.735 91.6914 294.95 91.2983L293.195 90.3395L291.439 89.3807C290.606 90.9063 290.579 92.7173 290.854 94.4375C291.135 96.1933 291.777 98.1428 292.612 100.168C294.281 104.217 296.875 108.937 299.484 113.612C302.122 118.339 304.783 123.035 306.709 127.193C307.67 129.267 308.42 131.15 308.888 132.79C309.364 134.456 309.502 135.715 309.381 136.599L311.363 136.869ZM147.849 183.5L146.487 184.964C153.286 191.289 155.319 194.444 163.21 197.837L164 196L164.79 194.163C157.724 191.124 156.388 188.711 149.212 182.035L147.849 183.5ZM164 196L163.21 197.837C168.958 200.309 174.99 202.24 179.747 203.792C182.148 204.575 184.194 205.252 185.763 205.86C186.546 206.164 187.168 206.435 187.634 206.675C187.866 206.795 188.039 206.897 188.163 206.98C188.293 207.067 188.335 207.111 188.329 207.105L189.776 205.724L191.223 204.344C190.736 203.833 190.08 203.437 189.47 203.121C188.824 202.788 188.054 202.458 187.209 202.131C185.52 201.476 183.366 200.765 180.988 199.989C176.186 198.422 170.339 196.549 164.79 194.163L164 196ZM158.938 23.2164L159.853 24.9947C175.696 16.8418 207.936 8.30285 240.159 24.0832L241.038 22.287L241.918 20.4908C208.193 3.97502 174.569 12.9235 158.023 21.438L158.938 23.2164ZM241.038 22.287L240.159 24.0832C242.128 25.0474 244.098 26.1028 246.064 27.255L247.075 25.5293L248.086 23.8036C246.033 22.601 243.976 21.4987 241.918 20.4908L241.038 22.287ZM268.039 2.0893L268.211 0.0967075C263.885 -0.276686 257.289 0.34645 251.412 3.47535C245.433 6.6582 240.261 12.4161 239.054 22.0381L241.038 22.287L243.023 22.5359C244.052 14.3281 248.346 9.63886 253.291 7.00618C258.338 4.31955 264.124 3.75875 267.867 4.08189L268.039 2.0893ZM135.271 177.889L137.111 177.105C136.722 176.192 136.326 175.39 136.006 174.717C135.675 174.022 135.417 173.447 135.222 172.861L133.325 173.494L131.428 174.128C131.705 174.958 132.052 175.716 132.393 176.434C132.744 177.172 133.084 177.86 133.432 178.674L135.271 177.889ZM133.325 173.494L135.222 172.861C134.461 170.581 134.723 168.151 135.02 166.142C135.09 165.669 135.168 165.171 135.22 164.756C135.269 164.364 135.319 163.866 135.281 163.404C135.256 163.099 135.128 161.867 133.921 161.304C133.351 161.039 132.806 161.067 132.442 161.14C132.085 161.211 131.778 161.347 131.548 161.468L132.476 163.239L133.405 165.011C133.453 164.985 133.382 165.031 133.223 165.063C133.057 165.096 132.673 165.136 132.232 164.93C131.763 164.712 131.514 164.351 131.401 164.103C131.349 163.988 131.324 163.893 131.311 163.838C131.299 163.781 131.296 163.744 131.295 163.735C131.294 163.722 131.297 163.756 131.291 163.861C131.285 163.961 131.272 164.091 131.251 164.262C131.206 164.617 131.142 165.021 131.063 165.558C130.764 167.581 130.338 170.861 131.428 174.128L133.325 173.494ZM133.325 173.494L134.2 171.696C128.648 168.995 121.612 161.732 120.485 152.736L118.501 152.984L116.516 153.233C117.846 163.849 125.958 172.134 132.45 175.293L133.325 173.494ZM111.513 107.024L109.824 105.952C108.882 107.437 108.052 109.831 107.341 112.544C106.613 115.323 105.958 118.651 105.441 122.152C104.411 129.12 103.896 136.976 104.511 142.713L106.5 142.5L108.489 142.287C107.925 137.031 108.39 129.554 109.398 122.736C109.899 119.344 110.528 116.164 111.211 113.558C111.91 110.886 112.617 109.017 113.202 108.096L111.513 107.024ZM106.5 142.5L104.539 142.892C105.177 146.082 105.836 148.522 106.52 150.356C107.19 152.153 107.946 153.541 108.877 154.456C109.905 155.467 111.173 155.909 112.508 155.634C113.649 155.399 114.555 154.689 115.172 154.122C115.805 153.539 116.42 152.825 116.846 152.357C117.08 152.099 117.266 151.904 117.423 151.757C117.593 151.6 117.65 151.575 117.613 151.594C117.572 151.615 117.25 151.771 116.789 151.657C116.311 151.54 116.101 151.239 116.08 151.207C116.069 151.19 116.141 151.304 116.24 151.677C116.333 152.032 116.429 152.536 116.516 153.233L118.501 152.984L120.485 152.736C120.298 151.237 120.015 149.925 119.439 149.035C119.115 148.534 118.575 147.977 117.743 147.773C116.926 147.572 116.225 147.809 115.782 148.038C115 148.441 114.313 149.196 113.886 149.665C113.346 150.259 112.923 150.755 112.463 151.178C112.247 151.377 112.067 151.516 111.92 151.608C111.849 151.652 111.795 151.68 111.756 151.696C111.718 151.713 111.7 151.716 111.701 151.716C111.85 151.685 111.896 151.814 111.681 151.604C111.369 151.296 110.862 150.553 110.267 148.958C109.686 147.399 109.077 145.186 108.461 142.108L106.5 142.5Z" fill="#FFC341"/>
<path d="M257.748 104.342C252.28 104.342 250.153 96.7784 250.913 93.5938C251.767 90.0111 252.052 84.0399 258.888 84.0399C265.147 84.0399 264.964 91.2053 264.584 94.788C264.584 97.9727 263.217 104.342 257.748 104.342Z" fill="#272525" stroke="#272525" stroke-width="4" stroke-linecap="round" stroke-linejoin="round"/>
<path d="M261.498 95.9999C258.759 95.9999 257.694 92.2744 258.075 90.7058C258.503 88.9411 258.645 85.9999 262.069 85.9999C265.204 85.9999 265.112 89.5293 264.922 91.294C264.922 92.8626 264.237 95.9999 261.498 95.9999Z" fill="white" stroke="#272525" stroke-width="4" stroke-linecap="round" stroke-linejoin="round"/>
<path d="M151.534 104.342C146.066 104.342 143.939 96.7784 144.699 93.5938C145.553 90.0111 145.838 84.0399 152.674 84.0399C158.933 84.0399 158.75 91.2053 158.37 94.788C158.37 97.9727 157.003 104.342 151.534 104.342Z" fill="#272525" stroke="#272525" stroke-width="4" stroke-linecap="round" stroke-linejoin="round"/>
<path d="M161.321 148.672C175.855 155.107 194.862 138.331 203.247 133.735C211.632 138.331 230.639 155.107 245.174 148.672C246.571 153.268 225.608 186.59 203.247 186.59C185.358 186.59 167.842 161.311 161.321 148.672Z" fill="#272525"/>
<path d="M203.247 133.735C194.862 138.331 175.855 155.107 161.321 148.672M203.247 133.735C211.632 138.331 230.639 155.107 245.174 148.672M203.247 133.735V126.525M161.321 148.672C146.786 142.238 142.221 137.565 141.755 136.033M161.321 148.672C167.842 161.311 185.358 186.59 203.247 186.59C225.608 186.59 246.571 153.268 245.174 148.672M141.755 136.033C138.401 138.791 131.04 137.948 127.779 137.182M141.755 136.033C145.109 133.275 147.345 131.437 147.345 127.99M245.174 148.672C259.708 142.238 264.273 137.565 264.739 136.033M264.739 136.033C268.093 138.791 275.454 137.948 278.715 137.182M264.739 136.033C261.385 133.275 259.149 131.437 259.149 127.99" stroke="#272525" stroke-width="4" stroke-linecap="round" stroke-linejoin="round"/>
<path d="M183.998 162.958C178.888 178.229 195 189.356 203.16 190C209.5 190.5 226.154 184.591 228.709 169.32C231.264 154.05 216.294 154.553 211.144 153.413C196.772 150.232 189.108 147.687 183.998 162.958Z" fill="#FF5050"/>
<path d="M178.091 110.571C178.091 116.431 193.464 126.686 201.85 126.686C210.235 126.686 225.608 116.431 225.608 110.571C225.608 103.246 217.223 94.4564 201.85 95.9214C186.477 94.4564 178.091 103.246 178.091 110.571Z" fill="#272525" stroke="#272525" stroke-width="4" stroke-linecap="round" stroke-linejoin="round"/>
<path d="M149.498 95.9999C146.759 95.9999 145.694 92.2744 146.075 90.7058C146.503 88.9411 146.645 85.9999 150.069 85.9999C153.204 85.9999 153.112 89.5293 152.922 91.294C152.922 92.8626 152.237 95.9999 149.498 95.9999Z" fill="white" stroke="#272525" stroke-width="4" stroke-linecap="round" stroke-linejoin="round"/>
<path d="M73.5 296.5C67 278.5 81.5 237 82.5 235.5" stroke="#FFA641" stroke-width="3" stroke-linecap="round"/>
</svg>
