<svg width="81" height="82" viewBox="0 0 81 82" fill="none" xmlns="http://www.w3.org/2000/svg">
<path d="M5.7411 72.9812C7.73778 75.6661 8.94265 77.5806 9.73258 78.1682C13.5491 81.007 18.3867 80.6774 20.0628 80.6165C23.2462 80.319 25.4848 80.0788 27.3633 79.8386C29.3656 79.2436 31.4494 79.2378 33.299 78.4639C34.8626 77.8097 36.6523 77.6736 38.8616 76.7917C41.1245 75.8883 44.2523 74.9257 46.4246 73.5027C48.6162 72.0671 51.7363 70.3021 54.2988 68.1849C56.108 66.6901 59.4119 65.5294 60.9825 60.7127C61.605 58.8039 62.6082 52.9063 61.4756 49.3637C60.5926 46.6017 58.1254 41.1517 55.0956 39.5094C53.2208 38.4932 51.814 37.0133 48.635 37.0629C40.592 37.1884 37.2547 37.6303 35.725 39.8195C34.4726 41.6118 32.0923 45.7658 31.9791 44.3433C31.8554 42.7876 31.7955 39.7199 30.6649 38.0146C29.4706 36.2133 27.3084 32.843 24.7873 31.6841C23.2237 30.9654 21.4255 29.4461 15.4676 30.1947C13.0997 30.4922 10.7743 31.0968 8.91329 32.2881C7.22783 33.3671 5.49094 34.5329 4.15875 37.3246C1.48339 42.931 0.219029 46.2926 0.797211 54.2908C1.10843 58.5959 1.68031 63.3422 2.61203 66.2313C3.61318 69.3356 4.2991 71.0421 5.7411 72.9812Z" fill="currentColor" stroke="currentColor" stroke-width="1.31884" stroke-linecap="round"/>
<path d="M1.17683 7.84355C-0.274021 15.1782 1.60979 18.8616 3.33871 19.8946C4.18294 20.399 6.41516 19.6932 6.80116 19.5414C7.56739 19.1912 9.29862 17.583 11.0241 15.1782C11.6924 12.9628 12.1947 10.2249 11.2574 7.25588C10.2463 4.053 9.2062 1.28687 7.65525 0.755435C7.36575 0.656238 7.07451 0.623402 6.74211 0.70734C5.34935 1.05904 4.02407 1.28042 2.99736 2.56654C2.27865 3.46684 1.69825 5.20757 1.17683 7.84355Z" fill="currentColor" stroke="currentColor" stroke-width="1.31884" stroke-linecap="round"/>
<path d="M24.1166 6.2142C23.3862 8.42709 21.7076 14.3578 23.2337 16.1515C24.1638 17.2447 26.2408 17.0715 26.4731 16.885C26.7054 16.6985 28.2038 16.3352 28.4361 16.1515C29.3618 15.5976 31.8613 13.5802 32.7084 12.1381C33.9832 9.96807 35.8472 7.93699 34.8985 4.81294C34.2004 2.51441 33.2206 0.81425 32.1214 0.678617C30.6548 0.497663 26.7369 1.63688 26.0039 2.38653C25.2353 3.17251 24.759 4.26809 24.1166 6.2142Z" fill="currentColor" stroke="currentColor" stroke-width="1.31884" stroke-linecap="round"/>
<path d="M48.3002 10.8267C46.9318 13.7631 46.9318 17.8462 47.4141 20.9973C47.95 24.4985 52.6201 24.714 53.78 24.6514C56.1789 23.9703 59.1063 19.2072 59.1063 19.2072C59.1063 19.2072 59.7634 16.1183 59.8672 15.1241C60.106 12.8378 58.9553 9.09319 57.6674 7.43036C56.6722 6.14546 54.7302 5.6752 53.0363 6.20989C51.6542 6.64616 49.7654 7.68232 48.3002 10.8267Z" fill="currentColor" stroke="currentColor" stroke-width="1.31884" stroke-linecap="round"/>
<path d="M68.2757 21.8274C65.9231 24.1683 64.3844 28.152 63.6361 31.4112C62.8047 35.0326 66.9763 37.0315 68.056 37.4146C70.4973 37.6689 74.958 34.143 74.958 34.143C74.958 34.143 76.7204 31.3808 77.1896 30.4506C78.2686 28.3113 78.6319 24.2171 78.0857 22.1014C77.6637 20.4666 76.0724 19.2639 74.3284 19.1368C72.9054 19.0331 70.795 19.3207 68.2757 21.8274Z" fill="currentColor" stroke="currentColor" stroke-width="1.31884" stroke-linecap="round"/>
</svg>
