<svg width="168" height="63" viewBox="0 0 168 63" fill="none" xmlns="http://www.w3.org/2000/svg">
<path d="M0 25.6809C0 24.9792 0.278258 24.3017 0.834773 23.6484C1.41548 22.9709 2.11718 22.6322 2.93985 22.6322L8.31144 22.5959V22.124C8.38402 18.0349 9.30348 14.8289 11.0698 12.506C12.8361 10.1832 15.7034 9.05803 19.6716 9.13062L23.664 9.20321C24.656 9.20321 25.5029 9.56615 26.2046 10.292C26.9063 10.9937 27.2572 11.8406 27.2572 12.8327C27.2572 13.8247 26.9063 14.6595 26.2046 15.337C25.5029 16.0145 24.644 16.3532 23.6277 16.3532L19.5627 15.7725C18.3045 15.7725 17.3851 15.9661 16.8043 16.3532C16.2478 16.7162 15.8849 17.3695 15.7155 18.3131C15.5703 19.2568 15.5098 20.5997 15.534 22.3418L15.5703 22.6685L22.9018 22.7048C23.8697 22.7048 24.6802 23.0314 25.3335 23.6847C26.011 24.338 26.3498 25.1244 26.3498 26.0438C26.3498 26.8181 26.0352 27.5682 25.4061 28.2941C24.777 28.9958 24.0632 29.3466 23.2648 29.3466L15.5703 29.4192L15.6429 58.6726V58.7089C15.6429 59.6767 15.28 60.4994 14.5541 61.1769C13.8524 61.8302 13.0055 62.1569 12.0135 62.1569C11.0214 62.1569 10.1625 61.8302 9.43656 61.1769C8.73487 60.4994 8.38402 59.6767 8.38402 58.7089V58.6726L8.31144 29.3466L3.44798 29.3103C2.48012 29.3103 1.65745 28.9716 0.979951 28.2941C0.32665 27.6166 0 26.7455 0 25.6809Z" fill="#0952A6"/>
<path d="M46.0243 21.3982C47.8148 21.3982 49.557 21.7611 51.2507 22.487C52.9686 23.1887 54.493 24.0839 55.8238 25.1728C57.1788 26.2374 58.183 27.3383 58.8363 28.4756L59.2355 24.9913C59.2355 23.9993 59.5258 23.1524 60.1066 22.4507C60.6873 21.7248 61.4737 21.3619 62.4657 21.3619C63.4578 21.3619 64.3046 21.7248 65.0063 22.4507C65.7322 23.1524 66.0951 23.9993 66.0951 24.9913V25.0639L66.0226 58.6726C66.0226 59.6646 65.6596 60.5236 64.9337 61.2495C64.232 61.9512 63.3852 62.302 62.3931 62.302C61.4011 62.302 60.6147 61.9512 60.034 61.2495C59.4533 60.5236 59.1629 59.6646 59.1629 58.6726L58.7637 55.769C57.5055 57.9225 55.6665 59.5316 53.2469 60.5962C50.8273 61.6366 48.3955 62.1569 45.9517 62.1569C43.2175 62.1569 40.6527 61.6245 38.2573 60.5599C35.8619 59.4711 33.7568 57.983 31.942 56.0957C30.1273 54.2084 28.6997 52.0428 27.6593 49.599C26.6431 47.1551 26.1349 44.5782 26.1349 41.8682C26.1349 39.1824 26.631 36.6176 27.623 34.1738C28.6392 31.7058 30.0426 29.516 31.8332 27.6045C33.6479 25.6688 35.753 24.1565 38.1484 23.0677C40.568 21.9547 43.1933 21.3982 46.0243 21.3982ZM58.5459 41.7957C58.5459 39.4244 57.9894 37.2467 56.8764 35.2626C55.7875 33.2785 54.2994 31.6816 52.4121 30.4718C50.5248 29.262 48.3713 28.657 45.9517 28.657C43.5805 28.657 41.4391 29.262 39.5276 30.4718C37.6161 31.6816 36.1038 33.2906 34.9908 35.2989C33.8778 37.283 33.3212 39.4365 33.3212 41.7594C33.3212 44.1064 33.8899 46.2841 35.0271 48.2924C36.1643 50.2765 37.6887 51.8734 39.6002 53.0832C41.5359 54.293 43.6652 54.898 45.988 54.898C48.3109 54.898 50.4159 54.293 52.3032 53.0832C54.2148 51.8734 55.727 50.2765 56.8401 48.2924C57.9773 46.2841 58.5459 44.1185 58.5459 41.7957Z" fill="#0952A6"/>
<path d="M94.444 26.1527C94.444 28.0884 93.5125 29.1652 91.6494 29.3829C90.9719 29.4555 90.1129 29.2378 89.0725 28.7296C88.032 28.1973 86.9795 27.9312 85.9148 27.9312C83.8098 27.9312 82.1402 28.4756 80.9062 29.5644C79.6722 30.629 78.789 32.0687 78.2567 33.8835C77.7244 35.6982 77.4582 37.7307 77.4582 39.9809V58.7089C77.4582 59.7735 77.1316 60.6204 76.4783 61.2495C75.8492 61.8786 74.966 62.1931 73.8288 62.1931C72.7157 62.1931 71.8326 61.8786 71.1793 61.2495C70.526 60.6204 70.1993 59.7614 70.1993 58.6726V25.2454C70.1993 24.1565 70.4655 23.2613 70.9978 22.5596C71.5543 21.8579 72.3044 21.507 73.2481 21.507C73.8046 21.507 74.4458 21.749 75.1717 22.2329C75.9218 22.6927 76.442 23.4911 76.7323 24.6284L77.0953 27.2416C77.4098 26.5641 78.0147 25.7777 78.91 24.8824C79.8053 23.9872 80.8699 23.2129 82.1039 22.5596C83.3379 21.8821 84.6203 21.5433 85.9511 21.5433C88.4192 21.5433 90.4517 21.8337 92.0486 22.4144C93.6456 22.9709 94.444 24.217 94.444 26.1527Z" fill="#0952A6"/>
<path d="M112.268 62.0117C115.002 62.0117 117.567 61.4793 119.962 60.4147L118.619 52.938C116.732 54.0995 114.627 54.6802 112.304 54.6802C110.029 54.6802 107.936 54.1116 106.025 52.9743C104.113 51.8371 102.577 50.3127 101.416 48.4012C100.278 46.4655 99.7097 44.3241 99.7097 41.9771C99.7097 39.6059 100.254 37.4403 101.343 35.4804C101.252 35.3537 99.2243 30.2012 98.2216 27.6408C96.4069 29.5039 94.9793 31.6574 93.9389 34.1012C92.8984 36.545 92.3782 39.1461 92.3782 41.9045C92.3782 44.6871 92.8984 47.3003 93.9389 49.7441C94.9793 52.1638 96.4069 54.293 98.2216 56.132C100.061 57.9709 102.178 59.4105 104.573 60.451C106.993 61.4914 109.558 62.0117 112.268 62.0117Z" fill="#0952A6"/>
<path d="M104.73 41.822C101.395 41.1549 96.8973 36.2596 96.2298 30.322C95.5632 22.2511 98.1191 16.5036 107.884 6.67072C110.46 4.07711 115.73 -8.5029e-06 124.561 0C135.637 1.0664e-05 141.003 3.01953 144.23 7.32203C148.73 13.322 148.566 17.5461 151.23 19.322C154.23 21.322 157.863 19.4098 166.005 25.6321C168.21 27.3171 165.001 30.5081 162.993 32.0856C162.85 36.6747 160.73 44.6939 154.23 46.822C147.913 48.8903 136.352 47.5621 129.898 44.6939C127.23 47.3622 142.288 49.1557 139.331 49.725C136.23 50.322 125.901 58.1537 119.23 60.822C114.73 61.822 112.382 57.64 114.73 54.822C117.23 51.822 120.939 42.6688 121.226 35.3549C119.218 40.6611 110.316 42.9395 104.73 41.822Z" fill="#EF8422"/>
<path d="M161.595 33.2956C158.81 33.0188 155.333 25.3131 157.73 21.3218C157.73 20.822 166.488 21.987 167.087 23.3174C167.623 24.5074 168.285 33.9609 161.595 33.2956Z" fill="#0952A6"/>
<path d="M130.009 15.8127C124.582 17.8797 130.009 25.6307 134.23 26.6642C138.451 25.6307 143.877 17.8797 138.451 15.8127C137.245 15.4683 134.712 15.5027 134.23 18.3964C133.747 15.5027 131.215 15.4683 130.009 15.8127Z" fill="#0952A6"/>
</svg>
