<svg width="142" height="53" viewBox="0 0 142 53" fill="none" xmlns="http://www.w3.org/2000/svg">
<path d="M0 21.7841C0 21.1888 0.236033 20.6142 0.708099 20.06C1.20069 19.4853 1.7959 19.198 2.49374 19.198L7.0502 19.1672V18.7669C7.11177 15.2983 7.89171 12.5788 9.39 10.6084C10.8883 8.63805 13.3205 7.68366 16.6865 7.74523L20.0731 7.8068C20.9146 7.8068 21.6329 8.11467 22.2281 8.73041C22.8234 9.32562 23.121 10.044 23.121 10.8855C23.121 11.727 22.8234 12.4351 22.2281 13.0098C21.6329 13.5845 20.9043 13.8718 20.0423 13.8718L16.5941 13.3792C15.5269 13.3792 14.7469 13.5434 14.2543 13.8718C13.7823 14.1797 13.4744 14.7339 13.3307 15.5343C13.2076 16.3348 13.1563 17.4739 13.1768 18.9517L13.2076 19.2287L19.4265 19.2595C20.2475 19.2595 20.9351 19.5366 21.4893 20.0908C22.0639 20.6449 22.3513 21.312 22.3513 22.0919C22.3513 22.7487 22.0845 23.385 21.5508 24.0007C21.0172 24.5959 20.4117 24.8935 19.7344 24.8935L13.2076 24.9551L13.2692 49.7693V49.8001C13.2692 50.6211 12.9613 51.319 12.3455 51.8936C11.7503 52.4478 11.032 52.7249 10.1905 52.7249C9.34895 52.7249 8.62033 52.4478 8.00459 51.8936C7.40938 51.319 7.11177 50.6211 7.11177 49.8001V49.7693L7.0502 24.8935L2.92476 24.8627C2.10377 24.8627 1.40593 24.5754 0.831246 24.0007C0.277082 23.426 0 22.6871 0 21.7841Z" fill="#FFD2A6"/>
<path d="M39.0402 18.1512C40.5591 18.1512 42.0368 18.4591 43.4736 19.0748C44.9308 19.67 46.2239 20.4294 47.3527 21.353C48.5021 22.2561 49.3539 23.19 49.908 24.1546L50.2467 21.1991C50.2467 20.3576 50.493 19.6392 50.9856 19.044C51.4782 18.4283 52.1452 18.1204 52.9867 18.1204C53.8282 18.1204 54.5466 18.4283 55.1418 19.044C55.7575 19.6392 56.0654 20.3576 56.0654 21.1991V21.2607L56.0038 49.7693C56.0038 50.6109 55.696 51.3395 55.0802 51.9552C54.485 52.5504 53.7666 52.848 52.9251 52.848C52.0836 52.848 51.4166 52.5504 50.924 51.9552C50.4314 51.3395 50.1851 50.6109 50.1851 49.7693L49.8464 47.3064C48.7792 49.1331 47.2193 50.498 45.1668 51.4011C43.1144 52.2836 41.0517 52.7249 38.9787 52.7249C36.6594 52.7249 34.4838 52.2733 32.4519 51.3703C30.4199 50.4467 28.6343 49.1844 27.0949 47.5835C25.5556 45.9826 24.3446 44.1456 23.4621 42.0726C22.6 39.9996 22.169 37.8138 22.169 35.515C22.169 33.2368 22.5898 31.0612 23.4313 28.9882C24.2933 26.8947 25.4838 25.0372 27.0026 23.4158C28.5419 21.7738 30.3276 20.491 32.3595 19.5674C34.4119 18.6233 36.6389 18.1512 39.0402 18.1512ZM49.6617 35.4534C49.6617 33.442 49.1897 31.5948 48.2455 29.9118C47.3219 28.2288 46.0597 26.8742 44.4587 25.8479C42.8578 24.8217 41.0311 24.3086 38.9787 24.3086C36.9673 24.3086 35.1508 24.8217 33.5294 25.8479C31.908 26.8742 30.6252 28.239 29.681 29.9426C28.7369 31.6256 28.2648 33.4523 28.2648 35.4226C28.2648 37.4135 28.7472 39.2608 29.7118 40.9643C30.6765 42.6473 31.9695 44.0019 33.591 45.0282C35.2329 46.0544 37.0391 46.5675 39.0095 46.5675C40.9798 46.5675 42.7655 46.0544 44.3664 45.0282C45.9878 44.0019 47.2706 42.6473 48.2147 40.9643C49.1794 39.2608 49.6617 37.4238 49.6617 35.4534Z" fill="#FFD2A6"/>
<path d="M80.1124 22.1843C80.1124 23.8263 79.3222 24.7396 77.7418 24.9243C77.1672 24.9859 76.4385 24.8012 75.556 24.3702C74.6734 23.9186 73.7806 23.6928 72.8775 23.6928C71.0919 23.6928 69.6757 24.1546 68.6289 25.0783C67.5822 25.9813 66.833 27.2025 66.3815 28.7419C65.9299 30.2812 65.7042 32.0053 65.7042 33.9141V49.8001C65.7042 50.7032 65.4271 51.4216 64.8729 51.9552C64.3393 52.4889 63.5901 52.7557 62.6255 52.7557C61.6813 52.7557 60.9322 52.4889 60.378 51.9552C59.8239 51.4216 59.5468 50.6929 59.5468 49.7693V21.4146C59.5468 20.491 59.7726 19.7316 60.2241 19.1364C60.6962 18.5412 61.3324 18.2436 62.1329 18.2436C62.6049 18.2436 63.1488 18.4488 63.7646 18.8593C64.4008 19.2493 64.8421 19.9266 65.0884 20.8912L65.3963 23.1079C65.6631 22.5332 66.1762 21.8662 66.9356 21.1067C67.695 20.3473 68.5981 19.6905 69.6449 19.1364C70.6916 18.5617 71.7794 18.2743 72.9083 18.2743C75.0018 18.2743 76.7259 18.5206 78.0805 19.0132C79.4351 19.4853 80.1124 20.5423 80.1124 22.1843Z" fill="#FFD2A6"/>
<path d="M95.2314 52.6018C97.5506 52.6018 99.7262 52.1502 101.758 51.2472L100.619 44.9051C99.0181 45.8902 97.2325 46.3828 95.2621 46.3828C93.3328 46.3828 91.5575 45.9005 89.936 44.9358C88.3146 43.9712 87.0113 42.6781 86.0261 41.0567C85.0614 39.4147 84.5791 37.5983 84.5791 35.6074C84.5791 33.596 85.0409 31.7591 85.9645 30.0966C85.8877 29.9891 84.1674 25.6185 83.3168 23.4466C81.7775 25.027 80.5665 26.8537 79.684 28.9267C78.8014 30.9996 78.3601 33.206 78.3601 35.5458C78.3601 37.9062 78.8014 40.1228 79.684 42.1958C80.5665 44.2483 81.7775 46.0544 83.3168 47.6143C84.8767 49.1742 86.6726 50.3954 88.7045 51.2779C90.757 52.1605 92.9326 52.6018 95.2314 52.6018Z" fill="#FFD2A6"/>
<path d="M105.658 0C115.054 9.04575e-06 119.606 2.56133 122.343 6.21094C126.16 11.3003 126.021 14.8831 128.281 16.3896C129.769 17.3818 130.636 17.1285 133.149 17.8945C132.069 19.9376 132.313 23.5866 133.726 26.168C134.594 27.7537 135.735 28.9814 138.152 29.0547C137.774 33.0173 135.885 38.0602 130.825 39.7168C125.467 41.4712 115.66 40.3451 110.186 37.9121C107.924 40.1754 120.695 41.6967 118.187 42.1797C115.556 42.6868 106.795 49.3294 101.137 51.5928C97.3198 52.441 95.3277 48.8933 97.3196 46.5029C99.4401 43.9581 102.586 36.1941 102.829 29.9902C101.126 34.4909 93.5759 36.4234 88.8372 35.4756C86.0084 34.9097 82.1925 30.7573 81.6263 25.7207C81.0609 18.8746 83.2297 13.9989 91.513 5.6582C93.6979 3.4582 98.1678 0.000121633 105.658 0ZM117.441 13.4131C116.418 13.1209 114.27 13.1505 113.861 15.6045C113.451 13.1503 111.302 13.1209 110.28 13.4131C105.677 15.1666 110.28 21.7415 113.861 22.6182C117.441 21.7414 122.044 15.1664 117.441 13.4131Z" fill="#FFD2A6"/>
<path d="M137.073 28.2432C134.711 28.0083 131.762 21.472 133.795 18.0863C133.795 17.6624 141.224 18.6506 141.732 19.7792C142.187 20.7885 142.749 28.8075 137.073 28.2432Z" fill="#FFD2A6"/>
</svg>
